svg xmlns="http://www.w3.org/2000/svg" width="1000" height="1000" xmlns:v="https://vecta.io/nano"><rect width="1000" height="1000" rx="200" fill="#f4eed7" stroke="#000"/><g transform="matrix(3.287508 0 0 3.287508 100.000019 298.657672)"><svg width="243.345" height="122.489"><svg width="243.345" height="122.489"><path d="M24.9 96.486l175.853 2.075 34.604-9.576 3.783-32.961-51.966-6.535-52.82-39.633-57.58 4.669-31.124 25.418-12.969 24.9z" fill="#e9ddaf" stroke="#000"/><g fill="#222b00" stroke="#450"><path d="M237.38 50.183c-13.345-8.981-22.634-2.286-38.265 1.15C183.231 20.858 151.334 0 114.656 0 64.7 0 23.613 38.688 19.776 87.675H7.5a7.5 7.5 0 1 0 0 15h19.481 12.078c-.966 2.35-1.521 14.303-2.075 17.635 2.429 2.554 11.114 1.53 14.161 1.53.866 0 6.756.055 7.615-.264 4.334-2.19-4.921-9.594-.273-18.9h115.251c1.276 8.658 13.128 16.536 21.482 19.634.859.319 3.815.081 4.681.081 3.047 0 6.69.464 9.108-.614 7.146.914-2.616-12.48-6.5-13.92-2.465-.914-4.376-2.831-5.342-5.181h5.16 0 .019l19.885-4.402c10.022-2.219 15.064-7.916 18.472-17.611 3.399-9.664 4.657-24.08-3.324-30.48zM114.656 15.001c34.914 0 64.674 22.437 75.651 53.646H39.006c10.976-31.209 40.736-53.646 75.65-53.646zM34.829 87.676c.286-3.065.765-6.073 1.387-9.029h156.88c.622 2.956 1.102 5.964 1.387 9.029zm198.696-9.235c-.489 1.392-4.429 6.335-10.019 7.946l-14.75 7.255c-.599-7.651-1.332-21.015-3.641-28.055.938-.088 4.61-4.559 5.401-5.088 9.037-6.052 17.296-6.915 22.615-2.649 4.496 3.606.879 19.211.394 20.591z"/><circle cx="219.817" cy="63.725" r="1"/></g></svg></svg></g></svg>