<?xml version="1.0" encoding="UTF-8" standalone="no"?>
<svg
   version="1.1"
   width="1000"
   height="1000"
   id="svg31"
   sodipodi:docname="favicon_original.svg"
   inkscape:version="1.2 (dc2aedaf03, 2022-05-15)"
   xmlns:inkscape="http://www.inkscape.org/namespaces/inkscape"
   xmlns:sodipodi="http://sodipodi.sourceforge.net/DTD/sodipodi-0.dtd"
   xmlns="http://www.w3.org/2000/svg"
   xmlns:svg="http://www.w3.org/2000/svg">
  <defs
     id="defs33" />
  <rect
     width="1000"
     height="1000"
     rx="200"
     ry="200"
     fill="#555555"
     id="rect2"
     style="fill:#f4eed7;stroke:#000000" />
  <g
     transform="matrix(3.287507803207975,0,0,3.287507803207975,100.0000192059066,298.657672484729)"
     id="g29">
    <svg
       version="1.1"
       width="243.34543"
       height="122.48933"
       id="svg26">
      <svg
         version="1.1"
         id="Capa_1"
         x="0px"
         y="0px"
         viewBox="0 0 243.34544 122.48934"
         xml:space="preserve"
         sodipodi:docname="tortuga.svg"
         inkscape:version="1.2 (dc2aedaf03, 2022-05-15)"
         width="243.34543"
         height="122.48933"><defs
   id="defs39" /><sodipodi:namedview
   id="namedview37"
   pagecolor="#ffffff"
   bordercolor="#000000"
   borderopacity="0.25"
   inkscape:showpageshadow="2"
   inkscape:pageopacity="0.0"
   inkscape:pagecheckerboard="0"
   inkscape:deskcolor="#d1d1d1"
   showgrid="false"
   inkscape:zoom="0.4819356"
   inkscape:cx="-369.34395"
   inkscape:cy="147.32259"
   inkscape:window-width="2560"
   inkscape:window-height="1009"
   inkscape:window-x="-8"
   inkscape:window-y="-8"
   inkscape:window-maximized="1"
   inkscape:current-layer="svg31" />
<path
   style="fill:#e9ddaf;stroke:#000000;stroke-width:1;stroke-linecap:round;stroke-dasharray:none"
   d="m 24.899593,96.485921 175.853367,2.074966 34.6038,-9.575629 3.78308,-32.961175 L 187.17378,49.489047 134.35405,9.8560887 76.773744,14.524762 45.649253,39.943096 32.680715,64.842689 Z"
   id="path2660"
   sodipodi:nodetypes="cccccccccc" /><g
   id="g4"
   transform="translate(0,-61.227)"
   style="fill:#222b00;stroke:#445500">
	<path
   d="M 237.38022,111.40984 C 224.03544,102.42864 214.74629,109.12419 199.115,112.56 183.231,82.085 151.334,61.227 114.656,61.227 64.7,61.227 23.613,99.915 19.776,148.902 H 7.5 c -4.143,0 -7.5,3.358 -7.5,7.5 0,4.142 3.357,7.5 7.5,7.5 h 19.481 12.078 c -0.966,2.35 -1.52103,14.30267 -2.074511,17.63467 2.429283,2.55388 11.114277,1.53012 14.161277,1.53012 0.866,0 6.756412,0.0547 7.615412,-0.26435 4.333753,-2.1902 -4.920998,-9.59401 -0.273178,-18.90044 h 115.251 c 1.276,8.658 13.12803,16.53606 21.48203,19.63406 0.859,0.319 3.81497,0.0809 4.68097,0.0809 3.047,0 6.69012,0.46433 9.10797,-0.61439 7.14616,0.91436 -2.61597,-12.47961 -6.49997,-13.91961 -2.465,-0.914 -4.376,-2.831 -5.342,-5.181 h 5.16 v 0 h 0.019 l 19.88482,-4.40167 c 10.02239,-2.21854 15.06414,-7.91562 18.47214,-17.61062 3.399,-9.664 4.65726,-24.07987 -3.32374,-30.47987 z M 114.656,76.228 c 34.914,0 64.674,22.437 75.651,53.646 H 39.006 C 49.982,98.665 79.742,76.228 114.656,76.228 Z m -79.827,72.675 c 0.286,-3.065 0.765,-6.073 1.387,-9.029 h 156.88 c 0.622,2.956 1.102,5.964 1.387,9.029 z m 198.69626,-9.23525 c -0.489,1.392 -4.42928,6.3347 -10.01865,7.94603 l -14.74972,7.25475 c -0.599,-7.651 -1.33189,-21.01453 -3.64089,-28.05453 0.938,-0.088 4.61048,-4.55868 5.40064,-5.08788 9.03683,-6.05229 17.29586,-6.91514 22.61486,-2.64914 4.496,3.606 0.87876,19.21077 0.39376,20.59077 z"
   id="path2"
   style="fill:#222b00;stroke:#445500"
   sodipodi:nodetypes="ccscssscccsccccsccccccscccccsccccccsccsccs" />
<circle
   style="fill:#222b00;stroke:#445500;stroke-width:1;stroke-linecap:round;stroke-dasharray:none"
   id="path472"
   cx="219.81671"
   cy="124.95187"
   r="1" /></g>
<g
   id="g6"
   transform="translate(-275.45174,-92.870232)">
</g>
<g
   id="g8"
   transform="translate(-275.45174,-92.870232)">
</g>
<g
   id="g10"
   transform="translate(-275.45174,-92.870232)">
</g>
<g
   id="g12"
   transform="translate(-275.45174,-92.870232)">
</g>
<g
   id="g14"
   transform="translate(-275.45174,-92.870232)">
</g>
<g
   id="g16"
   transform="translate(-275.45174,-92.870232)">
</g>
<g
   id="g18"
   transform="translate(-275.45174,-92.870232)">
</g>
<g
   id="g20"
   transform="translate(-275.45174,-92.870232)">
</g>
<g
   id="g22"
   transform="translate(-275.45174,-92.870232)">
</g>
<g
   id="g24"
   transform="translate(-275.45174,-92.870232)">
</g>
<g
   id="g26"
   transform="translate(-275.45174,-92.870232)">
</g>
<g
   id="g28"
   transform="translate(-275.45174,-92.870232)">
</g>
<g
   id="g30"
   transform="translate(-275.45174,-92.870232)">
</g>
<g
   id="g32"
   transform="translate(-275.45174,-92.870232)">
</g>
<g
   id="g34"
   transform="translate(-275.45174,-92.870232)">
</g>
</svg>
    </svg>
  </g>
</svg>
